%TF.GenerationSoftware,KiCad,Pcbnew,9.0.4*%
%TF.CreationDate,2025-09-08T16:44:26+02:00*%
%TF.ProjectId,STYX_V1,53545958-5f56-4312-9e6b-696361645f70,rev?*%
%TF.SameCoordinates,Original*%
%TF.FileFunction,Soldermask,Top*%
%TF.FilePolarity,Negative*%
%FSLAX46Y46*%
G04 Gerber Fmt 4.6, Leading zero omitted, Abs format (unit mm)*
G04 Created by KiCad (PCBNEW 9.0.4) date 2025-09-08 16:44:26*
%MOMM*%
%LPD*%
G01*
G04 APERTURE LIST*
G04 Aperture macros list*
%AMRoundRect*
0 Rectangle with rounded corners*
0 $1 Rounding radius*
0 $2 $3 $4 $5 $6 $7 $8 $9 X,Y pos of 4 corners*
0 Add a 4 corners polygon primitive as box body*
4,1,4,$2,$3,$4,$5,$6,$7,$8,$9,$2,$3,0*
0 Add four circle primitives for the rounded corners*
1,1,$1+$1,$2,$3*
1,1,$1+$1,$4,$5*
1,1,$1+$1,$6,$7*
1,1,$1+$1,$8,$9*
0 Add four rect primitives between the rounded corners*
20,1,$1+$1,$2,$3,$4,$5,0*
20,1,$1+$1,$4,$5,$6,$7,0*
20,1,$1+$1,$6,$7,$8,$9,0*
20,1,$1+$1,$8,$9,$2,$3,0*%
G04 Aperture macros list end*
%ADD10RoundRect,0.250000X0.625000X-0.350000X0.625000X0.350000X-0.625000X0.350000X-0.625000X-0.350000X0*%
%ADD11O,1.750000X1.200000*%
%ADD12RoundRect,0.250000X-0.625000X0.350000X-0.625000X-0.350000X0.625000X-0.350000X0.625000X0.350000X0*%
%ADD13R,1.700000X1.700000*%
%ADD14O,1.700000X1.700000*%
G04 APERTURE END LIST*
D10*
%TO.C,frein Droit*%
X123950000Y-76500000D03*
D11*
X123950000Y-74500000D03*
X123950000Y-72500000D03*
%TD*%
D10*
%TO.C,frein Gauche*%
X124000000Y-88500000D03*
D11*
X124000000Y-86500000D03*
X124000000Y-84500000D03*
%TD*%
%TO.C,Gaz*%
X83000000Y-96000000D03*
X83000000Y-94000000D03*
D12*
X83000000Y-92000000D03*
%TD*%
D10*
%TO.C,REF\u002A\u002A*%
X124000000Y-65000000D03*
D11*
X124000000Y-63000000D03*
X124000000Y-61000000D03*
X124000000Y-59000000D03*
X124000000Y-57000000D03*
X124000000Y-55000000D03*
%TD*%
D12*
%TO.C,REF\u002A\u002A*%
X83000000Y-79500000D03*
D11*
X83000000Y-81500000D03*
X83000000Y-83500000D03*
X83000000Y-85500000D03*
%TD*%
D12*
%TO.C,REF\u002A\u002A*%
X83000000Y-50000000D03*
D11*
X83000000Y-52000000D03*
X83000000Y-54000000D03*
X83000000Y-56000000D03*
%TD*%
D13*
%TO.C,REF\u002A\u002A*%
X116000000Y-44000000D03*
D14*
X116000000Y-46540000D03*
X116000000Y-49080000D03*
X116000000Y-51620000D03*
X116000000Y-54160000D03*
X116000000Y-56700000D03*
X116000000Y-59240000D03*
X116000000Y-61780000D03*
X116000000Y-64320000D03*
X116000000Y-66860000D03*
X116000000Y-69400000D03*
X116000000Y-71940000D03*
X116000000Y-74480000D03*
X116000000Y-77020000D03*
X116000000Y-79560000D03*
X116000000Y-82100000D03*
X116000000Y-84640000D03*
X116000000Y-87180000D03*
X116000000Y-89720000D03*
X116000000Y-92260000D03*
X116000000Y-94800000D03*
X116000000Y-97340000D03*
%TD*%
D13*
%TO.C,REF\u002A\u002A*%
X90000000Y-44000000D03*
D14*
X90000000Y-46540000D03*
X90000000Y-49080000D03*
X90000000Y-51620000D03*
X90000000Y-54160000D03*
X90000000Y-56700000D03*
X90000000Y-59240000D03*
X90000000Y-61780000D03*
X90000000Y-64320000D03*
X90000000Y-66860000D03*
X90000000Y-69400000D03*
X90000000Y-71940000D03*
X90000000Y-74480000D03*
X90000000Y-77020000D03*
X90000000Y-79560000D03*
X90000000Y-82100000D03*
X90000000Y-84640000D03*
X90000000Y-87180000D03*
X90000000Y-89720000D03*
X90000000Y-92260000D03*
X90000000Y-94800000D03*
X90000000Y-97340000D03*
%TD*%
D12*
%TO.C,REF\u002A\u002A*%
X83000000Y-65000000D03*
D11*
X83000000Y-67000000D03*
X83000000Y-69000000D03*
X83000000Y-71000000D03*
X83000000Y-73000000D03*
%TD*%
M02*
