%TF.GenerationSoftware,KiCad,Pcbnew,9.0.4*%
%TF.CreationDate,2025-09-08T16:44:25+02:00*%
%TF.ProjectId,STYX_V1,53545958-5f56-4312-9e6b-696361645f70,rev?*%
%TF.SameCoordinates,Original*%
%TF.FileFunction,Copper,L2,Bot*%
%TF.FilePolarity,Positive*%
%FSLAX46Y46*%
G04 Gerber Fmt 4.6, Leading zero omitted, Abs format (unit mm)*
G04 Created by KiCad (PCBNEW 9.0.4) date 2025-09-08 16:44:25*
%MOMM*%
%LPD*%
G01*
G04 APERTURE LIST*
G04 Aperture macros list*
%AMRoundRect*
0 Rectangle with rounded corners*
0 $1 Rounding radius*
0 $2 $3 $4 $5 $6 $7 $8 $9 X,Y pos of 4 corners*
0 Add a 4 corners polygon primitive as box body*
4,1,4,$2,$3,$4,$5,$6,$7,$8,$9,$2,$3,0*
0 Add four circle primitives for the rounded corners*
1,1,$1+$1,$2,$3*
1,1,$1+$1,$4,$5*
1,1,$1+$1,$6,$7*
1,1,$1+$1,$8,$9*
0 Add four rect primitives between the rounded corners*
20,1,$1+$1,$2,$3,$4,$5,0*
20,1,$1+$1,$4,$5,$6,$7,0*
20,1,$1+$1,$6,$7,$8,$9,0*
20,1,$1+$1,$8,$9,$2,$3,0*%
G04 Aperture macros list end*
%TA.AperFunction,ComponentPad*%
%ADD10RoundRect,0.250000X0.625000X-0.350000X0.625000X0.350000X-0.625000X0.350000X-0.625000X-0.350000X0*%
%TD*%
%TA.AperFunction,ComponentPad*%
%ADD11O,1.750000X1.200000*%
%TD*%
%TA.AperFunction,ComponentPad*%
%ADD12RoundRect,0.250000X-0.625000X0.350000X-0.625000X-0.350000X0.625000X-0.350000X0.625000X0.350000X0*%
%TD*%
%TA.AperFunction,ComponentPad*%
%ADD13R,1.700000X1.700000*%
%TD*%
%TA.AperFunction,ComponentPad*%
%ADD14O,1.700000X1.700000*%
%TD*%
%TA.AperFunction,ViaPad*%
%ADD15C,0.600000*%
%TD*%
%TA.AperFunction,Conductor*%
%ADD16C,0.200000*%
%TD*%
G04 APERTURE END LIST*
D10*
%TO.P,frein Droit,1*%
%TO.N,N/C*%
X123950000Y-76500000D03*
D11*
%TO.P,frein Droit,2*%
X123950000Y-74500000D03*
%TO.P,frein Droit,3*%
X123950000Y-72500000D03*
%TD*%
D10*
%TO.P,frein Gauche,1*%
%TO.N,N/C*%
X124000000Y-88500000D03*
D11*
%TO.P,frein Gauche,2*%
X124000000Y-86500000D03*
%TO.P,frein Gauche,3*%
X124000000Y-84500000D03*
%TD*%
%TO.P,Gaz,3*%
%TO.N,N/C*%
X83000000Y-96000000D03*
%TO.P,Gaz,2*%
X83000000Y-94000000D03*
D12*
%TO.P,Gaz,1*%
X83000000Y-92000000D03*
%TD*%
D10*
%TO.P,REF\u002A\u002A,1*%
%TO.N,N/C*%
X124000000Y-65000000D03*
D11*
%TO.P,REF\u002A\u002A,2*%
X124000000Y-63000000D03*
%TO.P,REF\u002A\u002A,3*%
X124000000Y-61000000D03*
%TO.P,REF\u002A\u002A,4*%
X124000000Y-59000000D03*
%TO.P,REF\u002A\u002A,5*%
X124000000Y-57000000D03*
%TO.P,REF\u002A\u002A,6*%
X124000000Y-55000000D03*
%TD*%
D12*
%TO.P,REF\u002A\u002A,1*%
%TO.N,N/C*%
X83000000Y-79500000D03*
D11*
%TO.P,REF\u002A\u002A,2*%
X83000000Y-81500000D03*
%TO.P,REF\u002A\u002A,3*%
X83000000Y-83500000D03*
%TO.P,REF\u002A\u002A,4*%
X83000000Y-85500000D03*
%TD*%
D12*
%TO.P,REF\u002A\u002A,1*%
%TO.N,N/C*%
X83000000Y-50000000D03*
D11*
%TO.P,REF\u002A\u002A,2*%
X83000000Y-52000000D03*
%TO.P,REF\u002A\u002A,3*%
X83000000Y-54000000D03*
%TO.P,REF\u002A\u002A,4*%
X83000000Y-56000000D03*
%TD*%
D13*
%TO.P,REF\u002A\u002A,1*%
%TO.N,N/C*%
X116000000Y-44000000D03*
D14*
%TO.P,REF\u002A\u002A,2*%
X116000000Y-46540000D03*
%TO.P,REF\u002A\u002A,3*%
X116000000Y-49080000D03*
%TO.P,REF\u002A\u002A,4*%
X116000000Y-51620000D03*
%TO.P,REF\u002A\u002A,5*%
X116000000Y-54160000D03*
%TO.P,REF\u002A\u002A,6*%
X116000000Y-56700000D03*
%TO.P,REF\u002A\u002A,7*%
X116000000Y-59240000D03*
%TO.P,REF\u002A\u002A,8*%
X116000000Y-61780000D03*
%TO.P,REF\u002A\u002A,9*%
X116000000Y-64320000D03*
%TO.P,REF\u002A\u002A,10*%
X116000000Y-66860000D03*
%TO.P,REF\u002A\u002A,11*%
X116000000Y-69400000D03*
%TO.P,REF\u002A\u002A,12*%
X116000000Y-71940000D03*
%TO.P,REF\u002A\u002A,13*%
X116000000Y-74480000D03*
%TO.P,REF\u002A\u002A,14*%
X116000000Y-77020000D03*
%TO.P,REF\u002A\u002A,15*%
X116000000Y-79560000D03*
%TO.P,REF\u002A\u002A,16*%
X116000000Y-82100000D03*
%TO.P,REF\u002A\u002A,17*%
X116000000Y-84640000D03*
%TO.P,REF\u002A\u002A,18*%
X116000000Y-87180000D03*
%TO.P,REF\u002A\u002A,19*%
X116000000Y-89720000D03*
%TO.P,REF\u002A\u002A,20*%
X116000000Y-92260000D03*
%TO.P,REF\u002A\u002A,21*%
X116000000Y-94800000D03*
%TO.P,REF\u002A\u002A,22*%
X116000000Y-97340000D03*
%TD*%
D13*
%TO.P,REF\u002A\u002A,1*%
%TO.N,N/C*%
X90000000Y-44000000D03*
D14*
%TO.P,REF\u002A\u002A,2*%
X90000000Y-46540000D03*
%TO.P,REF\u002A\u002A,3*%
X90000000Y-49080000D03*
%TO.P,REF\u002A\u002A,4*%
X90000000Y-51620000D03*
%TO.P,REF\u002A\u002A,5*%
X90000000Y-54160000D03*
%TO.P,REF\u002A\u002A,6*%
X90000000Y-56700000D03*
%TO.P,REF\u002A\u002A,7*%
X90000000Y-59240000D03*
%TO.P,REF\u002A\u002A,8*%
X90000000Y-61780000D03*
%TO.P,REF\u002A\u002A,9*%
X90000000Y-64320000D03*
%TO.P,REF\u002A\u002A,10*%
X90000000Y-66860000D03*
%TO.P,REF\u002A\u002A,11*%
X90000000Y-69400000D03*
%TO.P,REF\u002A\u002A,12*%
X90000000Y-71940000D03*
%TO.P,REF\u002A\u002A,13*%
X90000000Y-74480000D03*
%TO.P,REF\u002A\u002A,14*%
X90000000Y-77020000D03*
%TO.P,REF\u002A\u002A,15*%
X90000000Y-79560000D03*
%TO.P,REF\u002A\u002A,16*%
X90000000Y-82100000D03*
%TO.P,REF\u002A\u002A,17*%
X90000000Y-84640000D03*
%TO.P,REF\u002A\u002A,18*%
X90000000Y-87180000D03*
%TO.P,REF\u002A\u002A,19*%
X90000000Y-89720000D03*
%TO.P,REF\u002A\u002A,20*%
X90000000Y-92260000D03*
%TO.P,REF\u002A\u002A,21*%
X90000000Y-94800000D03*
%TO.P,REF\u002A\u002A,22*%
X90000000Y-97340000D03*
%TD*%
D12*
%TO.P,REF\u002A\u002A,1*%
%TO.N,N/C*%
X83000000Y-65000000D03*
D11*
%TO.P,REF\u002A\u002A,2*%
X83000000Y-67000000D03*
%TO.P,REF\u002A\u002A,3*%
X83000000Y-69000000D03*
%TO.P,REF\u002A\u002A,4*%
X83000000Y-71000000D03*
%TO.P,REF\u002A\u002A,5*%
X83000000Y-73000000D03*
%TD*%
D15*
%TO.N,*%
X127500000Y-79500000D03*
X127500000Y-55500000D03*
X119000000Y-71000000D03*
X120500000Y-80500000D03*
X86500000Y-90500000D03*
X88000000Y-96500000D03*
X87500000Y-48500000D03*
X120500000Y-87500000D03*
X86500000Y-48500000D03*
X87500000Y-82000000D03*
X87500000Y-66500000D03*
%TD*%
D16*
%TO.N,*%
X83000000Y-96000000D02*
X84500000Y-96000000D01*
X84500000Y-96000000D02*
X89000000Y-100500000D01*
X92000000Y-91720000D02*
X90000000Y-89720000D01*
X89000000Y-100500000D02*
X92000000Y-100500000D01*
X92000000Y-100500000D02*
X92000000Y-91720000D01*
X127500000Y-55500000D02*
X127500000Y-79500000D01*
X116000000Y-54160000D02*
X119000000Y-57160000D01*
X119000000Y-57160000D02*
X119000000Y-71000000D01*
X85500000Y-94000000D02*
X83000000Y-94000000D01*
X119500000Y-91300000D02*
X116000000Y-94800000D01*
X120500000Y-41500000D02*
X98500000Y-41500000D01*
X119500000Y-73500000D02*
X119500000Y-89500000D01*
X119500000Y-62500000D02*
X119500000Y-73500000D01*
X124000000Y-88500000D02*
X120500000Y-88500000D01*
X118500000Y-45500000D02*
X119500000Y-46500000D01*
X96500000Y-42500000D02*
X95000000Y-44000000D01*
X119500000Y-46500000D02*
X119500000Y-62500000D01*
X86500000Y-63500000D02*
X85000000Y-65000000D01*
X87500000Y-66500000D02*
X87500000Y-82000000D01*
X83000000Y-79500000D02*
X86000000Y-79500000D01*
X87500000Y-82000000D02*
X87500000Y-86500000D01*
X120500000Y-87500000D02*
X120500000Y-80500000D01*
X86500000Y-80000000D02*
X86500000Y-85500000D01*
X85500000Y-94000000D02*
X88000000Y-96500000D01*
X124000000Y-76500000D02*
X122500000Y-76500000D01*
X86500000Y-93840000D02*
X86500000Y-93500000D01*
X120500000Y-61500000D02*
X120500000Y-41500000D01*
X86000000Y-79500000D02*
X86500000Y-80000000D01*
X87500000Y-93500000D02*
X88800000Y-94800000D01*
X86500000Y-63500000D02*
X86500000Y-80000000D01*
X85000000Y-65000000D02*
X83000000Y-65000000D01*
X122000000Y-63000000D02*
X120500000Y-61500000D01*
X116000000Y-44000000D02*
X118000000Y-44000000D01*
X119400000Y-91400000D02*
X119400000Y-93940000D01*
X87500000Y-86500000D02*
X87500000Y-93500000D01*
X118000000Y-44000000D02*
X118500000Y-44500000D01*
X119500000Y-89500000D02*
X119500000Y-91300000D01*
X120500000Y-88500000D02*
X119500000Y-89500000D01*
X90000000Y-97340000D02*
X86500000Y-93840000D01*
X88800000Y-94800000D02*
X90000000Y-94800000D01*
X86500000Y-85500000D02*
X86500000Y-93500000D01*
X122000000Y-65000000D02*
X119500000Y-62500000D01*
X97500000Y-42500000D02*
X96500000Y-42500000D01*
X95000000Y-44000000D02*
X90000000Y-44000000D01*
X124000000Y-63000000D02*
X122000000Y-63000000D01*
X86500000Y-48500000D02*
X86500000Y-63500000D01*
X124000000Y-65000000D02*
X122000000Y-65000000D01*
X122500000Y-76500000D02*
X119500000Y-73500000D01*
X119500000Y-91300000D02*
X119400000Y-91400000D01*
X98500000Y-41500000D02*
X97500000Y-42500000D01*
X119400000Y-93940000D02*
X116000000Y-97340000D01*
X118500000Y-44500000D02*
X118500000Y-45500000D01*
%TD*%
M02*
