%TF.GenerationSoftware,KiCad,Pcbnew,9.0.4*%
%TF.CreationDate,2025-09-08T16:44:26+02:00*%
%TF.ProjectId,STYX_V1,53545958-5f56-4312-9e6b-696361645f70,rev?*%
%TF.SameCoordinates,Original*%
%TF.FileFunction,Legend,Bot*%
%TF.FilePolarity,Positive*%
%FSLAX46Y46*%
G04 Gerber Fmt 4.6, Leading zero omitted, Abs format (unit mm)*
G04 Created by KiCad (PCBNEW 9.0.4) date 2025-09-08 16:44:26*
%MOMM*%
%LPD*%
G01*
G04 APERTURE LIST*
%ADD10C,0.100000*%
G04 APERTURE END LIST*
D10*
X103637825Y-56148496D02*
X103637825Y-55386591D01*
X103637825Y-55386591D02*
X103637825Y-54624686D01*
X104485864Y-57434211D02*
X104771578Y-58196115D01*
X104771578Y-58196115D02*
X105057292Y-57434211D01*
X105533483Y-56672306D02*
X105485864Y-56719925D01*
X105485864Y-56719925D02*
X105343007Y-56815163D01*
X105343007Y-56815163D02*
X105247769Y-56862782D01*
X105247769Y-56862782D02*
X105104912Y-56910401D01*
X105104912Y-56910401D02*
X104866816Y-56958020D01*
X104866816Y-56958020D02*
X104676340Y-56958020D01*
X104676340Y-56958020D02*
X104438245Y-56910401D01*
X104438245Y-56910401D02*
X104295388Y-56862782D01*
X104295388Y-56862782D02*
X104200150Y-56815163D01*
X104200150Y-56815163D02*
X104057292Y-56719925D01*
X104057292Y-56719925D02*
X104009673Y-56672306D01*
X105152531Y-56148496D02*
X105104912Y-56243734D01*
X105104912Y-56243734D02*
X105057292Y-56291353D01*
X105057292Y-56291353D02*
X104962054Y-56338972D01*
X104962054Y-56338972D02*
X104676340Y-56338972D01*
X104676340Y-56338972D02*
X104581102Y-56291353D01*
X104581102Y-56291353D02*
X104533483Y-56243734D01*
X104533483Y-56243734D02*
X104485864Y-56148496D01*
X104485864Y-56148496D02*
X104485864Y-56005639D01*
X104485864Y-56005639D02*
X104533483Y-55910401D01*
X104533483Y-55910401D02*
X104581102Y-55862782D01*
X104581102Y-55862782D02*
X104676340Y-55815163D01*
X104676340Y-55815163D02*
X104962054Y-55815163D01*
X104962054Y-55815163D02*
X105057292Y-55862782D01*
X105057292Y-55862782D02*
X105104912Y-55910401D01*
X105104912Y-55910401D02*
X105152531Y-56005639D01*
X105152531Y-56005639D02*
X105152531Y-56148496D01*
X105533483Y-54719924D02*
X105485864Y-54672305D01*
X105485864Y-54672305D02*
X105343007Y-54577067D01*
X105343007Y-54577067D02*
X105247769Y-54529448D01*
X105247769Y-54529448D02*
X105104912Y-54481829D01*
X105104912Y-54481829D02*
X104866816Y-54434210D01*
X104866816Y-54434210D02*
X104676340Y-54434210D01*
X104676340Y-54434210D02*
X104438245Y-54481829D01*
X104438245Y-54481829D02*
X104295388Y-54529448D01*
X104295388Y-54529448D02*
X104200150Y-54577067D01*
X104200150Y-54577067D02*
X104057292Y-54672305D01*
X104057292Y-54672305D02*
X104009673Y-54719924D01*
X105247769Y-54196115D02*
X105247769Y-53434210D01*
X105247769Y-53434210D02*
X105247769Y-52672305D01*
X105247769Y-52672305D02*
X105247769Y-51910400D01*
X107143427Y-57148496D02*
X107095808Y-57196115D01*
X107095808Y-57196115D02*
X106952951Y-57291353D01*
X106952951Y-57291353D02*
X106857713Y-57338972D01*
X106857713Y-57338972D02*
X106714856Y-57386591D01*
X106714856Y-57386591D02*
X106476760Y-57434210D01*
X106476760Y-57434210D02*
X106286284Y-57434210D01*
X106286284Y-57434210D02*
X106048189Y-57386591D01*
X106048189Y-57386591D02*
X105905332Y-57338972D01*
X105905332Y-57338972D02*
X105810094Y-57291353D01*
X105810094Y-57291353D02*
X105667236Y-57196115D01*
X105667236Y-57196115D02*
X105619617Y-57148496D01*
X106667236Y-55243733D02*
X106714856Y-55196114D01*
X106714856Y-55196114D02*
X106762475Y-55243733D01*
X106762475Y-55243733D02*
X106714856Y-55291352D01*
X106714856Y-55291352D02*
X106667236Y-55243733D01*
X106667236Y-55243733D02*
X106762475Y-55243733D01*
X106857713Y-55005639D02*
X106857713Y-54243734D01*
X106095808Y-54005638D02*
X106381522Y-53243734D01*
X106381522Y-53243734D02*
X106667236Y-54005638D01*
X105714856Y-51291353D02*
X107000570Y-52148495D01*
X107324800Y-56815162D02*
X107467657Y-56672305D01*
X107991466Y-56291353D02*
X107991466Y-55529449D01*
X107991466Y-55053258D02*
X107991466Y-54291354D01*
X107991466Y-53815163D02*
X107991466Y-53053259D01*
X107372419Y-52529449D02*
X107562895Y-52624687D01*
X108637825Y-44851504D02*
X108637825Y-45613408D01*
X108637825Y-45613409D02*
X108637825Y-46375313D01*
X109485864Y-43565789D02*
X109771578Y-42803884D01*
X109771578Y-42803884D02*
X110057292Y-43565789D01*
X110533483Y-44327693D02*
X110485864Y-44280074D01*
X110485864Y-44280074D02*
X110343007Y-44184836D01*
X110343007Y-44184836D02*
X110247769Y-44137217D01*
X110247769Y-44137217D02*
X110104912Y-44089598D01*
X110104912Y-44089598D02*
X109866816Y-44041979D01*
X109866816Y-44041979D02*
X109676340Y-44041979D01*
X109676340Y-44041979D02*
X109438245Y-44089598D01*
X109438245Y-44089598D02*
X109295388Y-44137217D01*
X109295388Y-44137217D02*
X109200150Y-44184836D01*
X109200150Y-44184836D02*
X109057292Y-44280074D01*
X109057292Y-44280074D02*
X109009673Y-44327693D01*
X110152531Y-44851503D02*
X110104912Y-44756265D01*
X110104912Y-44756265D02*
X110057292Y-44708646D01*
X110057292Y-44708646D02*
X109962054Y-44661027D01*
X109962054Y-44661027D02*
X109676340Y-44661027D01*
X109676340Y-44661027D02*
X109581102Y-44708646D01*
X109581102Y-44708646D02*
X109533483Y-44756265D01*
X109533483Y-44756265D02*
X109485864Y-44851503D01*
X109485864Y-44851503D02*
X109485864Y-44994360D01*
X109485864Y-44994360D02*
X109533483Y-45089598D01*
X109533483Y-45089598D02*
X109581102Y-45137217D01*
X109581102Y-45137217D02*
X109676340Y-45184836D01*
X109676340Y-45184836D02*
X109962054Y-45184836D01*
X109962054Y-45184836D02*
X110057292Y-45137217D01*
X110057292Y-45137217D02*
X110104912Y-45089598D01*
X110104912Y-45089598D02*
X110152531Y-44994360D01*
X110152531Y-44994360D02*
X110152531Y-44851503D01*
X110533483Y-46280075D02*
X110485864Y-46327694D01*
X110485864Y-46327694D02*
X110343007Y-46422932D01*
X110343007Y-46422932D02*
X110247769Y-46470551D01*
X110247769Y-46470551D02*
X110104912Y-46518170D01*
X110104912Y-46518170D02*
X109866816Y-46565789D01*
X109866816Y-46565789D02*
X109676340Y-46565789D01*
X109676340Y-46565789D02*
X109438245Y-46518170D01*
X109438245Y-46518170D02*
X109295388Y-46470551D01*
X109295388Y-46470551D02*
X109200150Y-46422932D01*
X109200150Y-46422932D02*
X109057292Y-46327694D01*
X109057292Y-46327694D02*
X109009673Y-46280075D01*
X110247769Y-46803885D02*
X110247769Y-47565789D01*
X110247769Y-47565790D02*
X110247769Y-48327694D01*
X110247769Y-48327695D02*
X110247769Y-49089599D01*
X112143427Y-43851503D02*
X112095808Y-43803884D01*
X112095808Y-43803884D02*
X111952951Y-43708646D01*
X111952951Y-43708646D02*
X111857713Y-43661027D01*
X111857713Y-43661027D02*
X111714856Y-43613408D01*
X111714856Y-43613408D02*
X111476760Y-43565789D01*
X111476760Y-43565789D02*
X111286284Y-43565789D01*
X111286284Y-43565789D02*
X111048189Y-43613408D01*
X111048189Y-43613408D02*
X110905332Y-43661027D01*
X110905332Y-43661027D02*
X110810094Y-43708646D01*
X110810094Y-43708646D02*
X110667236Y-43803884D01*
X110667236Y-43803884D02*
X110619617Y-43851503D01*
X111667236Y-45756266D02*
X111714856Y-45803885D01*
X111714856Y-45803885D02*
X111762475Y-45756266D01*
X111762475Y-45756266D02*
X111714856Y-45708647D01*
X111714856Y-45708647D02*
X111667236Y-45756266D01*
X111667236Y-45756266D02*
X111762475Y-45756266D01*
X111857713Y-45994361D02*
X111857713Y-46756265D01*
X111095808Y-46994361D02*
X111381522Y-47756266D01*
X111381522Y-47756266D02*
X111667236Y-46994361D01*
X110714856Y-49708646D02*
X112000570Y-48851504D01*
X112324800Y-44184837D02*
X112467657Y-44327694D01*
X112991466Y-44708646D02*
X112991466Y-45470551D01*
X112991466Y-45946741D02*
X112991466Y-46708646D01*
X112991466Y-47184836D02*
X112991466Y-47946741D01*
X112372419Y-48470550D02*
X112562895Y-48375312D01*
M02*
