M48
; DRILL file {KiCad 9.0.4} date 2025-09-08T17:00:11+0200
; FORMAT={-:-/ absolute / metric / decimal}
; #@! TF.CreationDate,2025-09-08T17:00:11+02:00
; #@! TF.GenerationSoftware,Kicad,Pcbnew,9.0.4
; #@! TF.FileFunction,Plated,1,2,PTH
FMAT,2
METRIC
; #@! TA.AperFunction,Plated,PTH,ViaDrill
T1C0.300
; #@! TA.AperFunction,Plated,PTH,ComponentDrill
T2C0.750
; #@! TA.AperFunction,Plated,PTH,ComponentDrill
T3C1.000
%
G90
G05
T1
X86.5Y-48.5
X86.5Y-90.5
X87.5Y-48.5
X87.5Y-66.5
X87.5Y-82.0
X88.0Y-96.5
X119.0Y-71.0
X120.5Y-80.5
X120.5Y-87.5
X127.5Y-55.5
X127.5Y-79.5
T2
X83.0Y-50.0
X83.0Y-52.0
X83.0Y-54.0
X83.0Y-56.0
X83.0Y-65.0
X83.0Y-67.0
X83.0Y-69.0
X83.0Y-71.0
X83.0Y-73.0
X83.0Y-79.5
X83.0Y-81.5
X83.0Y-83.5
X83.0Y-85.5
X83.0Y-92.0
X83.0Y-94.0
X83.0Y-96.0
X123.95Y-72.5
X123.95Y-74.5
X123.95Y-76.5
X124.0Y-55.0
X124.0Y-57.0
X124.0Y-59.0
X124.0Y-61.0
X124.0Y-63.0
X124.0Y-65.0
X124.0Y-84.5
X124.0Y-86.5
X124.0Y-88.5
T3
X90.0Y-44.0
X90.0Y-46.54
X90.0Y-49.08
X90.0Y-51.62
X90.0Y-54.16
X90.0Y-56.7
X90.0Y-59.24
X90.0Y-61.78
X90.0Y-64.32
X90.0Y-66.86
X90.0Y-69.4
X90.0Y-71.94
X90.0Y-74.48
X90.0Y-77.02
X90.0Y-79.56
X90.0Y-82.1
X90.0Y-84.64
X90.0Y-87.18
X90.0Y-89.72
X90.0Y-92.26
X90.0Y-94.8
X90.0Y-97.34
X116.0Y-44.0
X116.0Y-46.54
X116.0Y-49.08
X116.0Y-51.62
X116.0Y-54.16
X116.0Y-56.7
X116.0Y-59.24
X116.0Y-61.78
X116.0Y-64.32
X116.0Y-66.86
X116.0Y-69.4
X116.0Y-71.94
X116.0Y-74.48
X116.0Y-77.02
X116.0Y-79.56
X116.0Y-82.1
X116.0Y-84.64
X116.0Y-87.18
X116.0Y-89.72
X116.0Y-92.26
X116.0Y-94.8
X116.0Y-97.34
M30
